<svg xmlns="http://www.w3.org/2000/svg" id="Capa_1" version="1.1" viewBox="0 0 800 800"><defs><style>.st0{fill:#e53517}.st4{display:none}.st5{fill:#fff}.st10{fill:#0091ca}.st11{fill:#353535}</style></defs><path d="m381.34 115.97 84.35 39.09 189.28 3.92 128.2-36.84 4.12 52.8-2.75 442.97-.68 64.46L739 729.69 595.29 762.6l-166.63-30.17-47.32-46.63z" class="st5"/><ellipse cx="581.23" cy="105.03" class="st11" rx="199.89" ry="66.55"/><path d="m375.86 510.94-292.8 3.43-30.17-36.34 2.74-187.2 27.43-37.72 284.28-2.05 14 10.89z" style="fill:#1e1e1e"/><path d="M360.09 141.34H11.06v489.6l364.11 6.17V532.2l-4.8-13.28H92.1l-27.71-21.49-4.65-44.81-.68-169.23 19.19-30.28 71.32-2.05h231.77V141.34z" class="st11"/><path d="M583.67 771.16c-121.3 0-216.33-45.69-216.33-104.02V644.7H11.54C5.17 644.7 0 639.54 0 633.16V137.7c0-6.37 5.16-11.54 11.54-11.54h355.8v-25.5c0-47.15 108.83-71.82 216.33-71.82S800 53.51 800 100.66v566.47c0 58.33-95.02 104.02-216.33 104.02Zm-193.25-636.3v532.27c0 39.09 77.65 80.95 193.25 80.95s193.25-41.85 193.25-80.95V134.86c-37.62 24.8-115.78 37.62-193.25 37.62s-155.63-12.81-193.25-37.62M23.08 621.62h344.27v-93.36H95.32c-27.63 0-50.11-22.48-50.11-50.11V288.99c0-27.63 22.48-50.11 50.11-50.11h272.03v-89.65H23.08v472.38Zm72.24-359.67c-14.9 0-27.03 12.12-27.03 27.03v189.16c0 14.91 12.13 27.03 27.03 27.03h272.03V261.95zM583.67 51.92c-117.97 0-193.25 28.87-193.25 48.74s75.28 48.74 193.25 48.74 193.25-28.87 193.25-48.74-75.28-48.74-193.25-48.74M422.39 657.08c-6.37 0-11.54-5.16-11.54-11.54V183.12c0-6.37 5.16-11.54 11.54-11.54s11.54 5.16 11.54 11.54v462.43c0 6.37-5.17 11.54-11.54 11.54Zm-84.83-47.69h-50.78c-6.37 0-11.54-5.16-11.54-11.54v-44.59c0-6.37 5.16-11.54 11.54-11.54h50.78c6.37 0 11.54 5.16 11.54 11.54v44.59c0 6.37-5.16 11.54-11.54 11.54m-39.25-23.08h27.71V564.8h-27.71zm-77.71 23.08h-50.78c-6.37 0-11.54-5.16-11.54-11.54v-44.59c0-6.37 5.16-11.54 11.54-11.54h50.78c6.37 0 11.54 5.16 11.54 11.54v44.59c0 6.37-5.16 11.54-11.54 11.54m-39.25-23.08h27.71V564.8h-27.71zm-77.71 23.08H52.86c-6.37 0-11.54-5.16-11.54-11.54v-44.59c0-6.37 5.16-11.54 11.54-11.54h50.78c6.37 0 11.54 5.16 11.54 11.54v44.59c0 6.37-5.16 11.54-11.54 11.54m-39.25-23.08H92.1V564.8H64.39zm273.17-359.66h-50.78c-6.37 0-11.54-5.16-11.54-11.54v-44.59c0-6.37 5.16-11.54 11.54-11.54h50.78c6.37 0 11.54 5.16 11.54 11.54v44.59c0 6.37-5.16 11.54-11.54 11.54m-39.25-23.08h27.71v-21.51h-27.71zm-77.71 23.08h-50.78c-6.37 0-11.54-5.16-11.54-11.54v-44.59c0-6.37 5.16-11.54 11.54-11.54h50.78c6.37 0 11.54 5.16 11.54 11.54v44.59c0 6.37-5.16 11.54-11.54 11.54m-39.25-23.08h27.71v-21.51h-27.71zm-77.71 23.08H52.86c-6.37 0-11.54-5.16-11.54-11.54v-44.59c0-6.37 5.16-11.54 11.54-11.54h50.78c6.37 0 11.54 5.16 11.54 11.54v44.59c0 6.37-5.16 11.54-11.54 11.54m-39.25-23.08H92.1v-21.51H64.39zm519.28-70.85c-23.47 0-100.05-2.31-100.05-32.06S560.2 68.6 583.67 68.6s100.05 2.31 100.05 32.06-76.58 32.06-100.05 32.06m-71.3-32.06c11.44 4.16 36.01 8.98 71.3 8.98s59.87-4.82 71.3-8.98c-11.44-4.16-36.01-8.98-71.3-8.98s-59.87 4.82-71.3 8.98"/><g id="text2995"><path id="path3000" d="m557.66 670.05.36-90.68h81.24v23.56h-63.8v43.39h36.49c9.28 0 14.92 2.45 18.69 5.06 3.72 2.61 5.66 5.62 6.83 8.79s1.89 7.11 1.89 14.13c0 4.16.05 8-.23 16.49l-18.65-.26q0-.84.15-4.38c.15-2.73.23-4.84.23-6.33 0-3.8-.62-7.48-2.6-8.56-1.94-.81-4.92-1.21-13.64-1.21h-46.97" class="st10"/><path id="path3002" d="M597.49 567.34c-7.14 0-14.05-2.2-20.73-6.59s-11.78-10.6-15.3-18.62c-3.52-8.08-5.28-17.09-5.28-27.02 0-15.34 4-27.91 12.01-37.71 7.96-9.8 18.03-14.7 30.22-14.7 12.29 0 22.49 4.96 30.6 14.89 8.06 9.86 12.09 22.31 12.09 37.33 0 9.29-1.68 18.17-5.05 26.64-3.37 8.4-8.65 14.8-15.12 19.19-6.53 4.39-14.1 6.59-23.43 6.59m1.14-24.25c8.06 0 15.31-3.11 19.59-7.88s8.23-13.19 8.23-20.19-3.24-15.19-7.51-19.91c-4.3-4.76-12.31-7.88-20.47-7.88-7.96 0-16.24 2.57-20.52 7.34-4.28 4.71-8.23 13.45-8.23 20.45s4.49 15.41 8.77 20.19c4.28 4.77 12.08 7.88 20.14 7.88" class="st10"/><path id="path3004" d="M558.02 449.58v-34.41l64.69-24.59-64.69-24.78v-33.95h81.24v23.89h-62.15l62.15 24.13v22.36l-62.15 23.01h62.15v24.34z" class="st10"/><path id="path3008" d="M597.49 320.63c-7.14 0-14.05-2.2-20.73-6.59s-11.78-10.6-15.3-18.62c-3.52-8.08-5.28-17.09-5.28-27.02 0-15.34 4-27.91 12.01-37.71 7.96-9.8 18.03-14.7 30.22-14.7 12.29 0 22.49 4.96 30.6 14.89 8.06 9.86 12.09 22.31 12.09 37.33 0 9.29-1.68 18.17-5.05 26.64-3.37 8.4-8.65 14.8-15.12 19.19-6.53 4.39-14.1 6.59-23.43 6.59m1.14-24.25c8.06 0 15.31-3.11 19.59-7.88s8.23-13.19 8.23-20.19-3.24-15.19-7.51-19.91c-4.3-4.76-12.31-7.88-20.47-7.88-7.96 0-16.24 2.57-20.52 7.34-4.28 4.71-8.23 13.45-8.23 20.45s4.49 15.41 8.77 20.19c4.28 4.77 12.08 7.88 20.14 7.88" class="st10"/></g></svg>