<svg xmlns="http://www.w3.org/2000/svg" id="Capa_1" version="1.1" viewBox="0 0 800 800"><defs><style>.st4{fill:#353535}</style></defs><path d="m381.34 115.97 84.35 39.09 189.28 3.92 128.2-36.84 4.12 52.8-2.75 442.97-.68 64.46L739 729.69 595.29 762.6l-166.63-30.17-47.32-46.63z" style="fill:#fff"/><ellipse cx="581.23" cy="105.03" class="st4" rx="199.89" ry="66.55"/><path d="m375.86 510.94-292.8 3.43-30.17-36.34 2.74-187.2 27.43-37.72 284.28-2.05 14 10.89z" style="fill:#1e1e1e"/><path d="M360.09 141.34H11.06v489.6l364.11 6.17V532.2l-4.8-13.28H92.1l-27.71-21.49-4.65-44.81-.68-169.23 19.19-30.28 71.32-2.05h231.77V141.34z" class="st4"/><path d="M583.67 771.16c-121.3 0-216.33-45.69-216.33-104.02V644.7H11.54C5.17 644.7 0 639.54 0 633.16V137.7c0-6.37 5.16-11.54 11.54-11.54h355.8v-25.5c0-47.15 108.83-71.82 216.33-71.82S800 53.51 800 100.66v566.47c0 58.33-95.02 104.02-216.33 104.02Zm-193.25-636.3v532.27c0 39.09 77.65 80.95 193.25 80.95s193.25-41.85 193.25-80.95V134.86c-37.62 24.8-115.78 37.62-193.25 37.62s-155.63-12.81-193.25-37.62M23.08 621.62h344.27v-93.36H95.32c-27.63 0-50.11-22.48-50.11-50.11V288.99c0-27.63 22.48-50.11 50.11-50.11h272.03v-89.65H23.08v472.38Zm72.24-359.67c-14.9 0-27.03 12.12-27.03 27.03v189.16c0 14.91 12.13 27.03 27.03 27.03h272.03V261.95zM583.67 51.92c-117.97 0-193.25 28.87-193.25 48.74s75.28 48.74 193.25 48.74 193.25-28.87 193.25-48.74-75.28-48.74-193.25-48.74M422.39 657.08c-6.37 0-11.54-5.16-11.54-11.54V183.12c0-6.37 5.16-11.54 11.54-11.54s11.54 5.16 11.54 11.54v462.43c0 6.37-5.17 11.54-11.54 11.54Zm-84.83-47.69h-50.78c-6.37 0-11.54-5.16-11.54-11.54v-44.59c0-6.37 5.16-11.54 11.54-11.54h50.78c6.37 0 11.54 5.16 11.54 11.54v44.59c0 6.37-5.16 11.54-11.54 11.54m-39.25-23.08h27.71V564.8h-27.71zm-77.71 23.08h-50.78c-6.37 0-11.54-5.16-11.54-11.54v-44.59c0-6.37 5.16-11.54 11.54-11.54h50.78c6.37 0 11.54 5.16 11.54 11.54v44.59c0 6.37-5.16 11.54-11.54 11.54m-39.25-23.08h27.71V564.8h-27.71zm-77.71 23.08H52.86c-6.37 0-11.54-5.16-11.54-11.54v-44.59c0-6.37 5.16-11.54 11.54-11.54h50.78c6.37 0 11.54 5.16 11.54 11.54v44.59c0 6.37-5.16 11.54-11.54 11.54m-39.25-23.08H92.1V564.8H64.39zm273.17-359.66h-50.78c-6.37 0-11.54-5.16-11.54-11.54v-44.59c0-6.37 5.16-11.54 11.54-11.54h50.78c6.37 0 11.54 5.16 11.54 11.54v44.59c0 6.37-5.16 11.54-11.54 11.54m-39.25-23.08h27.71v-21.51h-27.71zm-77.71 23.08h-50.78c-6.37 0-11.54-5.16-11.54-11.54v-44.59c0-6.37 5.16-11.54 11.54-11.54h50.78c6.37 0 11.54 5.16 11.54 11.54v44.59c0 6.37-5.16 11.54-11.54 11.54m-39.25-23.08h27.71v-21.51h-27.71zm-77.71 23.08H52.86c-6.37 0-11.54-5.16-11.54-11.54v-44.59c0-6.37 5.16-11.54 11.54-11.54h50.78c6.37 0 11.54 5.16 11.54 11.54v44.59c0 6.37-5.16 11.54-11.54 11.54m-39.25-23.08H92.1v-21.51H64.39zm519.28-70.85c-23.47 0-100.05-2.31-100.05-32.06S560.2 68.6 583.67 68.6s100.05 2.31 100.05 32.06-76.58 32.06-100.05 32.06m-71.3-32.06c11.44 4.16 36.01 8.98 71.3 8.98s59.87-4.82 71.3-8.98c-11.44-4.16-36.01-8.98-71.3-8.98s-59.87 4.82-71.3 8.98"/><path id="ILFORD" d="M552.45 444.9c-.23 9.18 1.94 18.59 6.14 25.87 6.04 12.07 18.24 21.33 30.57 24.95 4.48 1.38 9.28 2.04 14.11 1.96 7.94 0 15.91-1.95 22.47-5.23 12.16-5.61 22.47-17.37 26.52-29.79 5.08-13.88 2.75-31.17-4.83-43.24-9.75-15.53-26.05-24.22-44.16-24.3h-1.05c-9.75.08-18.19 3.1-25.87 8.1-9.66 6.12-17.28 15.6-20.9 25.87-1.84 4.85-2.87 10.3-3 15.81m3.26 221.57h94.98v-34.49h-94.98zm0-39.58h94.98v-61.66h-28.48v27.7h-66.5v33.97Zm0-64.93h94.98v-34.49h-32.92v-27.04h-24.69v27.04h-12.67v-30.31h-24.69v64.8Zm0-169.84h94.98v-32.4h-32.92l32.92-17.64v-76.43c-.17-7.93-1.07-15.88-3.92-22.86-5.77-15.87-22.72-24.58-38.67-25.87-17.07-1.99-33.33 2.36-44.03 15.81-4.83 6.39-7.93 15.76-8.36 24.04v49.64h91.58l-35.67 21.95-.78.39c-.08-.86-.22-1.36-.39-1.96-1.72-7.33-8.17-14.09-15.42-16.33-7.77-2.5-17.88-2.1-24.95 1.7-9.23 4.66-13.5 14.81-14.11 24.56l-.26 14.5v40.89Zm24.83-32.4c0-3.11-.04-6.43.13-9.54.17-2.84 2.34-5.67 5.1-6.53 3.37-1.12 7.25-.1 9.67 2.48 1.21 1.55 1.96 3.16 1.96 5.23v8.36h-16.85Zm3.52-87.66s.3-.7.13-1.05c-.26-7.33 1.64-14.49 8.36-18.03 7.5-3.88 18.09-2.74 24.56 2.61 4.48 4.14 5.53 10.11 5.1 15.81v.65h-38.15Zm.13 175.19c-.03-.76-.06-1.58 0-2.35.52-4.39 3.05-8.48 7.19-10.97 3.28-2.16 7.58-3.4 11.89-3.4 4.57-.09 9.27 1.07 12.8 3.4 4.91 3.54 7.09 9.04 6.14 15.15-.52 4.92-3.84 9.65-8.49 11.63-3.02 1.47-6.74 2.22-10.45 2.22-4.14 0-8.35-.98-11.63-2.87-4.83-2.64-7.26-7.46-7.45-12.8Z"/></svg>