<svg xmlns="http://www.w3.org/2000/svg" id="Capa_1" version="1.1" viewBox="0 0 800 800"><defs><style>.st1{fill:#feb827}.st3{fill:#353535}</style></defs><path d="m381.34 115.97 84.35 39.09 189.28 3.92 128.2-36.84 4.12 52.8-2.75 442.97-.68 64.46L739 729.69 595.29 762.6l-166.63-30.17-47.32-46.63z" class="st1"/><ellipse cx="581.23" cy="105.03" class="st3" rx="199.89" ry="66.55"/><path d="m375.86 510.94-292.8 3.43-30.17-36.34 2.74-187.2 27.43-37.72 284.28-2.05 14 10.89z" style="fill:#1e1e1e"/><path d="M360.09 141.34H11.06v489.6l364.11 6.17V532.2l-4.8-13.28H92.1l-27.71-21.49-4.65-44.81-.68-169.23 19.19-30.28 71.32-2.05h231.77V141.34z" class="st3"/><path d="M583.67 771.16c-121.3 0-216.33-45.69-216.33-104.02V644.7H11.54C5.17 644.7 0 639.54 0 633.16V137.7c0-6.37 5.16-11.54 11.54-11.54h355.8v-25.5c0-47.15 108.83-71.82 216.33-71.82S800 53.51 800 100.66v566.47c0 58.33-95.02 104.02-216.33 104.02Zm-193.25-636.3v532.27c0 39.09 77.65 80.95 193.25 80.95s193.25-41.85 193.25-80.95V134.86c-37.62 24.8-115.78 37.62-193.25 37.62s-155.63-12.81-193.25-37.62M23.08 621.62h344.27v-93.36H95.32c-27.63 0-50.11-22.48-50.11-50.11V288.99c0-27.63 22.48-50.11 50.11-50.11h272.03v-89.65H23.08v472.38Zm72.24-359.67c-14.9 0-27.03 12.12-27.03 27.03v189.16c0 14.91 12.13 27.03 27.03 27.03h272.03V261.95zM583.67 51.92c-117.97 0-193.25 28.87-193.25 48.74s75.28 48.74 193.25 48.74 193.25-28.87 193.25-48.74-75.28-48.74-193.25-48.74M422.39 657.08c-6.37 0-11.54-5.16-11.54-11.54V183.12c0-6.37 5.16-11.54 11.54-11.54s11.54 5.16 11.54 11.54v462.43c0 6.37-5.17 11.54-11.54 11.54Zm-84.83-47.69h-50.78c-6.37 0-11.54-5.16-11.54-11.54v-44.59c0-6.37 5.16-11.54 11.54-11.54h50.78c6.37 0 11.54 5.16 11.54 11.54v44.59c0 6.37-5.16 11.54-11.54 11.54m-39.25-23.08h27.71V564.8h-27.71zm-77.71 23.08h-50.78c-6.37 0-11.54-5.16-11.54-11.54v-44.59c0-6.37 5.16-11.54 11.54-11.54h50.78c6.37 0 11.54 5.16 11.54 11.54v44.59c0 6.37-5.16 11.54-11.54 11.54m-39.25-23.08h27.71V564.8h-27.71zm-77.71 23.08H52.86c-6.37 0-11.54-5.16-11.54-11.54v-44.59c0-6.37 5.16-11.54 11.54-11.54h50.78c6.37 0 11.54 5.16 11.54 11.54v44.59c0 6.37-5.16 11.54-11.54 11.54m-39.25-23.08H92.1V564.8H64.39zm273.17-359.66h-50.78c-6.37 0-11.54-5.16-11.54-11.54v-44.59c0-6.37 5.16-11.54 11.54-11.54h50.78c6.37 0 11.54 5.16 11.54 11.54v44.59c0 6.37-5.16 11.54-11.54 11.54m-39.25-23.08h27.71v-21.51h-27.71zm-77.71 23.08h-50.78c-6.37 0-11.54-5.16-11.54-11.54v-44.59c0-6.37 5.16-11.54 11.54-11.54h50.78c6.37 0 11.54 5.16 11.54 11.54v44.59c0 6.37-5.16 11.54-11.54 11.54m-39.25-23.08h27.71v-21.51h-27.71zm-77.71 23.08H52.86c-6.37 0-11.54-5.16-11.54-11.54v-44.59c0-6.37 5.16-11.54 11.54-11.54h50.78c6.37 0 11.54 5.16 11.54 11.54v44.59c0 6.37-5.16 11.54-11.54 11.54m-39.25-23.08H92.1v-21.51H64.39zm519.28-70.85c-23.47 0-100.05-2.31-100.05-32.06S560.2 68.6 583.67 68.6s100.05 2.31 100.05 32.06-76.58 32.06-100.05 32.06m-71.3-32.06c11.44 4.16 36.01 8.98 71.3 8.98s59.87-4.82 71.3-8.98c-11.44-4.16-36.01-8.98-71.3-8.98s-59.87 4.82-71.3 8.98"/><path d="M471.06 380.57s0 5.8 5.81 13.27l125.25 144.33s3.33 4.15 6.65 0c3.32-3.32 121.12-140.2 121.12-140.2s9.1-9.13 9.1-21.57v-84.6c0-14.93-13.26-20.76-23.22-20.76H492.62c-11.61 0-21.57 9.15-21.57 20.76v88.76Zm.78 175.52c.36 10.66 9.07 19.42 19.96 19.42h224.83c11.61.83 21.55-8.29 22.38-20.73V468.5c-1.66-9.95-11.59-4.97-11.59-4.97s-106.2 77.14-114.5 82.95c-9.12 7.47-16.6-.84-16.6-.84s-104.51-77.16-114.47-81.31c-9.95-4.15-9.94 6.65-9.94 6.65v82.95c-.05.73-.09 1.44-.07 2.15Z" style="fill:#ed1b2d"/><path d="M578.09 497.43h52.24v-14.95h-26.54l26.54-16.6v-17.4l-29.03 19.89-23.22-18.24v16.6l21.54 15.76h-21.54v14.95Zm.8-116.14H593c-1.66 2.49-1.65 5.79-1.65 9.1 0 14.1 9.11 18.28 19.89 18.28s20.73-5 20.73-18.28c0-4.15-1.64-7.47-4.13-10.78l2.49-.81v-10.78h-51.44zm0-58.9h51.44v-13.27h-19.08l19.08-11.62v-14.11l-24.06 14.11-14.92-12.43v13.27l13.27 10.78h-25.74v13.27Zm11.63 109.5c0 14.1 6.65 20.73 19.92 20.73 11.61 0 21.54-3.31 21.54-20.73 0-14.93-9.09-20.73-21.54-20.73-14.93 0-19.92 7.46-19.92 20.73m.84-70.52h11.59v-9.94c-2.49 0-4.13-2.5-4.13-5.81 0-4.98.82-5.79 4.97-6.62l3.33 14.92c1.66 6.64 7.45 10.78 12.43 10.78 5.81 0 12.43-4.14 12.43-12.43 0-6.64-4.12-12.45-5.78-14.11h4.13v-11.62H601.3c-7.47 0-9.94 7.49-9.94 14.95v19.89Zm7.46 70.52c0-6.64 8.31-6.65 11.62-6.65 4.15 0 12.43.01 12.43 6.65 0 7.47-8.28 7.46-12.43 7.46-2.49 0-11.62 0-11.62-7.46m.8-43.98c0-5.81 4.16-6.62 11.62-6.62 2.49 0 12.46-.02 12.46 6.62 0 7.47-9.98 7.49-12.46 7.49-2.49 0-11.62-.03-11.62-7.49m10.82-48.11s4.13-.83 6.62 0c3.32 0 5.81 3.33 5.81 6.65s-1.65 5.81-4.97 5.81-4.97-3.31-4.97-4.97c-.83-.83-2.49-5.83-2.49-7.49" class="st1"/></svg>