<svg xmlns="http://www.w3.org/2000/svg" id="Capa_1" version="1.1" viewBox="0 0 800 800"><defs><style>.st0{fill:#e53517}.st3{display:none}.st4{fill:#fff}.st10{fill:#353535}</style></defs><path d="m381.34 115.97 84.35 39.09 189.28 3.92 128.2-36.84 4.12 52.8-2.75 442.97-.68 64.46L739 729.69 595.29 762.6l-166.63-30.17-47.32-46.63z" style="fill:#73c67f"/><ellipse cx="581.23" cy="105.03" class="st10" rx="199.89" ry="66.55"/><path d="m375.86 510.94-292.8 3.43-30.17-36.34 2.74-187.2 27.43-37.72 284.28-2.05 14 10.89z" style="fill:#1e1e1e"/><path d="M360.09 141.34H11.06v489.6l364.11 6.17V532.2l-4.8-13.28H92.1l-27.71-21.49-4.65-44.81-.68-169.23 19.19-30.28 71.32-2.05h231.77V141.34z" class="st10"/><path d="M583.67 771.16c-121.3 0-216.33-45.69-216.33-104.02V644.7H11.54C5.17 644.7 0 639.54 0 633.16V137.7c0-6.37 5.16-11.54 11.54-11.54h355.8v-25.5c0-47.15 108.83-71.82 216.33-71.82S800 53.51 800 100.66v566.47c0 58.33-95.02 104.02-216.33 104.02Zm-193.25-636.3v532.27c0 39.09 77.65 80.95 193.25 80.95s193.25-41.85 193.25-80.95V134.86c-37.62 24.8-115.78 37.62-193.25 37.62s-155.63-12.81-193.25-37.62M23.08 621.62h344.27v-93.36H95.32c-27.63 0-50.11-22.48-50.11-50.11V288.99c0-27.63 22.48-50.11 50.11-50.11h272.03v-89.65H23.08v472.38Zm72.24-359.67c-14.9 0-27.03 12.12-27.03 27.03v189.16c0 14.91 12.13 27.03 27.03 27.03h272.03V261.95zM583.67 51.92c-117.97 0-193.25 28.87-193.25 48.74s75.28 48.74 193.25 48.74 193.25-28.87 193.25-48.74-75.28-48.74-193.25-48.74M422.39 657.08c-6.37 0-11.54-5.16-11.54-11.54V183.12c0-6.37 5.16-11.54 11.54-11.54s11.54 5.16 11.54 11.54v462.43c0 6.37-5.17 11.54-11.54 11.54Zm-84.83-47.69h-50.78c-6.37 0-11.54-5.16-11.54-11.54v-44.59c0-6.37 5.16-11.54 11.54-11.54h50.78c6.37 0 11.54 5.16 11.54 11.54v44.59c0 6.37-5.16 11.54-11.54 11.54m-39.25-23.08h27.71V564.8h-27.71zm-77.71 23.08h-50.78c-6.37 0-11.54-5.16-11.54-11.54v-44.59c0-6.37 5.16-11.54 11.54-11.54h50.78c6.37 0 11.54 5.16 11.54 11.54v44.59c0 6.37-5.16 11.54-11.54 11.54m-39.25-23.08h27.71V564.8h-27.71zm-77.71 23.08H52.86c-6.37 0-11.54-5.16-11.54-11.54v-44.59c0-6.37 5.16-11.54 11.54-11.54h50.78c6.37 0 11.54 5.16 11.54 11.54v44.59c0 6.37-5.16 11.54-11.54 11.54m-39.25-23.08H92.1V564.8H64.39zm273.17-359.66h-50.78c-6.37 0-11.54-5.16-11.54-11.54v-44.59c0-6.37 5.16-11.54 11.54-11.54h50.78c6.37 0 11.54 5.16 11.54 11.54v44.59c0 6.37-5.16 11.54-11.54 11.54m-39.25-23.08h27.71v-21.51h-27.71zm-77.71 23.08h-50.78c-6.37 0-11.54-5.16-11.54-11.54v-44.59c0-6.37 5.16-11.54 11.54-11.54h50.78c6.37 0 11.54 5.16 11.54 11.54v44.59c0 6.37-5.16 11.54-11.54 11.54m-39.25-23.08h27.71v-21.51h-27.71zm-77.71 23.08H52.86c-6.37 0-11.54-5.16-11.54-11.54v-44.59c0-6.37 5.16-11.54 11.54-11.54h50.78c6.37 0 11.54 5.16 11.54 11.54v44.59c0 6.37-5.16 11.54-11.54 11.54m-39.25-23.08H92.1v-21.51H64.39zm519.28-70.85c-23.47 0-100.05-2.31-100.05-32.06S560.2 68.6 583.67 68.6s100.05 2.31 100.05 32.06-76.58 32.06-100.05 32.06m-71.3-32.06c11.44 4.16 36.01 8.98 71.3 8.98s59.87-4.82 71.3-8.98c-11.44-4.16-36.01-8.98-71.3-8.98s-59.87 4.82-71.3 8.98"/><path d="m455.08 504.3 175.71-209.8 7.81-9.31-5.48 241.94-78.37 93.76-99.66-.02z" class="st4"/><path d="M519.1 576.61v-10.73h17.96c1.11 0 2.23-.07 3.33-.22a7.77 7.77 0 0 0 5.13-2.99 7.8 7.8 0 0 0 1.51-3.65c.12-.87.19-1.74.22-2.62.17-5.93.17-11.86 0-17.78-.03-.87-.1-1.75-.22-2.62a7.74 7.74 0 0 0-2.99-5.13 7.66 7.66 0 0 0-3.65-1.51c-1.1-.15-2.22-.23-3.33-.23h-29.93v13.2h25.62c.45 0 .9.04 1.34.13a2.834 2.834 0 0 1 2.27 2.49c.17 1.7.17 3.41 0 5.11a2.823 2.823 0 0 1-2.27 2.49c-.44.09-.89.13-1.34.13h-25.62v23.94h-7.65V483.3l-20.39 24.31v80.48c0 1.03.09 2.05.26 3.07a7.49 7.49 0 0 0 6.14 6.14c1.01.17 2.04.26 3.07.26h58.81v-20.93h-28.26Z" class="st0"/><path d="M507.13 521.63h30.28c1.62 0 3.24.1 4.85.29 2.5.31 4.87 1.29 6.86 2.84 2.89 2.26 4.77 5.58 5.21 9.23q.3 2.415.3 4.86v50.03l12.43-14.82v-38.69c0-2.91-.34-5.8-1-8.63a23.21 23.21 0 0 0-17.31-17.32c-2.83-.66-5.73-1-8.63-1h-32.97v13.21ZM507.14 501.08v-13.2h40.23v13.2z" class="st0"/><path d="M574.32 480.55v84.87l19.77-23.56V470.5c0-1.32-.11-2.63-.34-3.94a7.49 7.49 0 0 0-5.52-5.97c-.44-.11-.88-.21-1.33-.28q-1.83-.3-3.69-.3h-64.17l-17.24 20.54z" class="st0"/><path d="M455.08 262.06V504.3l178.04-212.58v235.41l-78.37 93.76h187.24V262.14z" style="fill:#05a45c"/><path d="M712.69 597.98h-42.73c-3.95 0-7.66.07-7.66-6.83v-27.98h7.57v19.68h13.18v-18.66h7.7v18.66h21.94zM662.3 462.59v-14.64h50.39v14.64zM697.26 510.57h-3.37v-14.08h7.21c1.72 0 5.65.1 5.72-4.83.06-3.98-1.54-5.29-5.41-5.3H662.3v-14.65h33.38c6.39 0 12.14.91 15.93 6.84 4.18 6.53 3.11 20.42.03 25.47-3.98 6.51-9.56 6.54-14.38 6.54ZM712.69 342.98v22.72c0 5.27-.16 8.54-6.88 8.53H662.3v-14.62h42.87v-16.62h7.52ZM712.69 339.11H662.3v-16.29l33.08-8.68-33.08-8.83v-20.12h50.39v14.2l-35.67-.02 35.67 9.6v12.23l-35.41 9.84h35.41zM662.3 558.34v-14.42h37.79c3.25 0 4.73-.52 5.62-2.07 1.5-2.59 1.5-7.66.04-10.26-.81-1.44-1.94-2.24-5.43-2.25-3.88-.01-38.03 0-38.03 0v-14.37h33c2.5 0 8.12-.09 11.34 1.84 2.62 1.57 5.09 4.15 6.38 8.76 1.77 6.32 1.73 15.93-.04 21.82-1.92 6.38-5.72 10.94-13.97 10.96-8.25.01-36.71 0-36.71 0ZM712.69 438.44h-42.73c-3.95 0-7.66.07-7.66-6.83v-27.98h7.57v19.68h13.18v-18.66h7.7v18.66h21.94zM662.3 398.4v-14.64h50.39v14.64z" class="st4"/><path d="M419.16 298.01h358.78v286.93H419.16z" style="fill:none;stroke:#000;stroke-width:.5px" transform="rotate(-90 598.545 441.475)"/></svg>