<svg xmlns="http://www.w3.org/2000/svg" id="Capa_1" version="1.1" viewBox="0 0 800 800"><defs><style>.st0{fill:#e53517}.st5{display:none}.st7,.st8,.st9{fill:#fff}.st8{fill-rule:evenodd}.st12,.st9{stroke-miterlimit:3.86}.st12{fill:none}.st12,.st9{stroke:#fff}.st16{fill:#353535}</style></defs><path d="m381.34 115.97 84.35 39.09 189.28 3.92 128.2-36.84 4.12 52.8-2.75 442.97-.68 64.46L739 729.69 595.29 762.6l-166.63-30.17-47.32-46.63z" style="fill:#e9f91e"/><ellipse cx="581.23" cy="105.03" class="st16" rx="199.89" ry="66.55"/><path d="m375.86 510.94-292.8 3.43-30.17-36.34 2.74-187.2 27.43-37.72 284.28-2.05 14 10.89z" style="fill:#1e1e1e"/><path d="M360.09 141.34H11.06v489.6l364.11 6.17V532.2l-4.8-13.28H92.1l-27.71-21.49-4.65-44.81-.68-169.23 19.19-30.28 71.32-2.05h231.77V141.34z" class="st16"/><path d="M583.67 771.16c-121.3 0-216.33-45.69-216.33-104.02V644.7H11.54C5.17 644.7 0 639.54 0 633.16V137.7c0-6.37 5.16-11.54 11.54-11.54h355.8v-25.5c0-47.15 108.83-71.82 216.33-71.82S800 53.51 800 100.66v566.47c0 58.33-95.02 104.02-216.33 104.02Zm-193.25-636.3v532.27c0 39.09 77.65 80.95 193.25 80.95s193.25-41.85 193.25-80.95V134.86c-37.62 24.8-115.78 37.62-193.25 37.62s-155.63-12.81-193.25-37.62M23.08 621.62h344.27v-93.36H95.32c-27.63 0-50.11-22.48-50.11-50.11V288.99c0-27.63 22.48-50.11 50.11-50.11h272.03v-89.65H23.08v472.38Zm72.24-359.67c-14.9 0-27.03 12.12-27.03 27.03v189.16c0 14.91 12.13 27.03 27.03 27.03h272.03V261.95zM583.67 51.92c-117.97 0-193.25 28.87-193.25 48.74s75.28 48.74 193.25 48.74 193.25-28.87 193.25-48.74-75.28-48.74-193.25-48.74M422.39 657.08c-6.37 0-11.54-5.16-11.54-11.54V183.12c0-6.37 5.16-11.54 11.54-11.54s11.54 5.16 11.54 11.54v462.43c0 6.37-5.17 11.54-11.54 11.54Zm-84.83-47.69h-50.78c-6.37 0-11.54-5.16-11.54-11.54v-44.59c0-6.37 5.16-11.54 11.54-11.54h50.78c6.37 0 11.54 5.16 11.54 11.54v44.59c0 6.37-5.16 11.54-11.54 11.54m-39.25-23.08h27.71V564.8h-27.71zm-77.71 23.08h-50.78c-6.37 0-11.54-5.16-11.54-11.54v-44.59c0-6.37 5.16-11.54 11.54-11.54h50.78c6.37 0 11.54 5.16 11.54 11.54v44.59c0 6.37-5.16 11.54-11.54 11.54m-39.25-23.08h27.71V564.8h-27.71zm-77.71 23.08H52.86c-6.37 0-11.54-5.16-11.54-11.54v-44.59c0-6.37 5.16-11.54 11.54-11.54h50.78c6.37 0 11.54 5.16 11.54 11.54v44.59c0 6.37-5.16 11.54-11.54 11.54m-39.25-23.08H92.1V564.8H64.39zm273.17-359.66h-50.78c-6.37 0-11.54-5.16-11.54-11.54v-44.59c0-6.37 5.16-11.54 11.54-11.54h50.78c6.37 0 11.54 5.16 11.54 11.54v44.59c0 6.37-5.16 11.54-11.54 11.54m-39.25-23.08h27.71v-21.51h-27.71zm-77.71 23.08h-50.78c-6.37 0-11.54-5.16-11.54-11.54v-44.59c0-6.37 5.16-11.54 11.54-11.54h50.78c6.37 0 11.54 5.16 11.54 11.54v44.59c0 6.37-5.16 11.54-11.54 11.54m-39.25-23.08h27.71v-21.51h-27.71zm-77.71 23.08H52.86c-6.37 0-11.54-5.16-11.54-11.54v-44.59c0-6.37 5.16-11.54 11.54-11.54h50.78c6.37 0 11.54 5.16 11.54 11.54v44.59c0 6.37-5.16 11.54-11.54 11.54m-39.25-23.08H92.1v-21.51H64.39zm519.28-70.85c-23.47 0-100.05-2.31-100.05-32.06S560.2 68.6 583.67 68.6s100.05 2.31 100.05 32.06-76.58 32.06-100.05 32.06m-71.3-32.06c11.44 4.16 36.01 8.98 71.3 8.98s59.87-4.82 71.3-8.98c-11.44-4.16-36.01-8.98-71.3-8.98s-59.87 4.82-71.3 8.98"/><path d="M547.69 684.29v-433.9h81.41v433.9z" style="fill:#e2091a"/><path d="M563.87 667.61v-14.04h42.2v14.04h-42.2z" class="st9"/><path d="M584.93 632.52v-7.1h14.09v7.1zm-7.04 13.97v-35.05h28.19v35.05z" class="st8"/><path d="M584.93 632.52v-7.1h14.09v7.1zm-7.04 13.97v-35.05h28.19v35.05z" class="st12"/><path d="M584.93 526.9v-7.1h14.09v7.1zm-7.04 13.98v-35.05h28.19v35.05z" class="st8"/><path d="M584.93 526.9v-7.1h14.09v7.1zm-7.04 13.98v-35.05h28.19v35.05z" class="st12"/><path d="M577.89 386.09v-35.05h28.19v21.08h7.03v13.97zm7.04-13.98v-7.1h14.09v7.1z" class="st8"/><path d="M577.89 386.09v-35.05h28.19v21.08h7.03v13.97zm7.04-13.98v-7.1h14.09v7.1z" class="st12"/><path d="M577.89 604.36v-49.27h7.07v-7.05h21.11v14.09H585v7.04h21.07v14.07H585v7.04h21.07v14.08h-28.18z" class="st9"/><path d="M577.89 498.77v-35.18h28.19v7h7.03v28.23h-7.03V477.7H599v21.12zm7.08-14.08v-7.08h7.02v7.08z" class="st8"/><path d="M577.89 498.77v-35.18h28.19v7h7.03v28.23h-7.03V477.7H599v21.12l-21.11-.05Zm7.08-14.08v-7.08h7.02v7.08z" class="st12"/><path d="M577.89 456.56h28.18v-14.1h-21.11v-7.05h-7.07v21.15z" class="st9"/><path d="M584.93 414.34h14.09v-7.1h-14.09zm-7.04 7.02v-28.09h28.19v28.09h-7.03v6.96h-14.08v-6.96z" class="st8"/><path d="M584.93 414.34h14.09v-7.1h-14.09v7.1Zm-7.04 7.02v-28.09h28.19v28.09h-7.03v6.96h-14.08v-6.96z" class="st12"/><path d="M577.89 308.74h28.18v14.07h-21.15v7.06h21.15v14.14h-42.23v-14.14h14.05v-21.13zM577.89 301.72v-14.06h14.09v-6.99h-14.09v-14.18h28.18v14.14h6.95v20.91h-6.95v-13.78h-6.98v13.82l-21.2.14z" class="st9"/><path d="M629.1 684.29v-433.9l19.96-15.24v427.34l-19.96 21.8z" style="fill:#cb0f16;stroke:#cb0f16;stroke-miterlimit:3.86"/><path d="m629.1 250.39 19.96-15.24h-81.19l-20.18 15.24z" style="fill:#e83336"/></svg>